<svg width="27.777832" height="25.000000" viewBox="0 0 27.7778 25" fill="none" xmlns="http://www.w3.org/2000/svg" xmlns:xlink="http://www.w3.org/1999/xlink">
	<desc>
			Created with Pixso.
	</desc>
	<defs/>
	<path id="Vector" d="M2.77 2.77L2.77 22.22L25 22.22L25 2.77L2.77 2.77ZM1.38 0L26.38 0C26.75 0 27.11 0.14 27.37 0.4C27.63 0.66 27.77 1.02 27.77 1.38L27.77 23.61C27.77 23.97 27.63 24.33 27.37 24.59C27.11 24.85 26.75 25 26.38 25L1.38 25C1.02 25 0.66 24.85 0.4 24.59C0.14 24.33 0 23.97 0 23.61L0 1.38C0 1.02 0.14 0.66 0.4 0.4C0.66 0.14 1.02 0 1.38 0ZM17.76 9.43L15.27 6.94L22.22 6.94L22.22 13.88L19.73 11.39L14.36 16.76L11.41 13.81L7.49 17.74L5.52 15.78L11.41 9.89L14.36 12.83L17.76 9.43Z" fill="#F25822" fill-opacity="1.000000" fill-rule="nonzero"/>
</svg>
