<svg width="25.000000" height="25.000000" viewBox="0 0 25 25" fill="none" xmlns="http://www.w3.org/2000/svg" xmlns:xlink="http://www.w3.org/1999/xlink">
	<desc>
			Created with Pixso.
	</desc>
	<defs/>
	<g opacity="0.000000">
		<path id="Vector" d="M0 0L25 0L25 25L0 25L0 0Z" fill="#149211" fill-opacity="1.000000" fill-rule="evenodd"/>
	</g>
	<path id="Vector" d="M11.57 23.95C11.45 23.95 11.33 23.93 11.21 23.89C10.99 23.81 10.81 23.66 10.69 23.46C10.56 23.26 10.51 23.03 10.54 22.8L11.34 15.41L5.2 15.41C5.01 15.41 4.83 15.36 4.67 15.26C4.5 15.17 4.37 15.03 4.28 14.86C4.19 14.69 4.15 14.5 4.16 14.32C4.17 14.13 4.23 13.94 4.34 13.79L12.56 1.5C12.69 1.3 12.88 1.16 13.1 1.09C13.32 1.02 13.56 1.02 13.78 1.1C13.99 1.18 14.17 1.32 14.29 1.51C14.41 1.7 14.47 1.92 14.45 2.14L13.65 9.58L19.79 9.58C19.98 9.58 20.16 9.63 20.32 9.73C20.49 9.82 20.62 9.96 20.71 10.13C20.8 10.3 20.84 10.49 20.83 10.67C20.82 10.86 20.76 11.05 20.65 11.2L12.43 23.5C12.34 23.64 12.21 23.75 12.06 23.83C11.91 23.91 11.74 23.95 11.57 23.95ZM7.15 13.33L12.5 13.33C12.64 13.33 12.78 13.36 12.92 13.42C13.05 13.48 13.17 13.56 13.27 13.67C13.36 13.78 13.44 13.91 13.48 14.05C13.53 14.19 13.54 14.34 13.53 14.48L13.06 18.81L17.84 11.66L12.5 11.66C12.35 11.66 12.2 11.63 12.07 11.57C11.93 11.51 11.81 11.43 11.71 11.32C11.62 11.21 11.54 11.08 11.5 10.94C11.45 10.8 11.44 10.65 11.45 10.51L11.92 6.18L7.15 13.33Z" fill="#149211" fill-opacity="1.000000" fill-rule="nonzero"/>
</svg>
