<svg width="25.000000" height="25.000000" viewBox="0 0 25 25" fill="none" xmlns="http://www.w3.org/2000/svg" xmlns:xlink="http://www.w3.org/1999/xlink">
	<desc>
			Created with Pixso.
	</desc>
	<defs/>
	<g opacity="0.000000">
		<path id="Vector" d="M0 0L25 0L25 25L0 25L0 0Z" fill="#FFC700" fill-opacity="1.000000" fill-rule="evenodd"/>
	</g>
	<path id="Vector" d="M13.4 22.91C12.9 22.91 12.42 22.71 12.06 22.36L5.38 15.67C5.21 15.5 5.1 15.28 5.08 15.04L4.16 5.3C4.15 5.14 4.17 4.99 4.22 4.85C4.27 4.7 4.36 4.57 4.46 4.46C4.57 4.36 4.7 4.27 4.85 4.22C4.99 4.17 5.14 4.15 5.3 4.16L15.04 5.08C15.28 5.1 15.5 5.21 15.67 5.38L22.36 12.06C22.71 12.41 22.91 12.89 22.91 13.4C22.91 13.9 22.71 14.38 22.36 14.73L14.73 22.36C14.38 22.71 13.9 22.91 13.4 22.91ZM7.15 14.46L13.4 20.71L20.74 13.37L14.49 7.12L6.36 6.36L7.15 14.46Z" fill="#FFC700" fill-opacity="1.000000" fill-rule="nonzero"/>
	<path id="Vector" d="M12.5 10.93C12.5 11.8 11.8 12.5 10.93 12.5C10.07 12.5 9.37 11.8 9.37 10.93C9.37 10.07 10.07 9.37 10.93 9.37C11.8 9.37 12.5 10.07 12.5 10.93Z" fill="#FFC700" fill-opacity="1.000000" fill-rule="evenodd"/>
</svg>
